<?xml version="1.0" encoding="UTF-8" ?>
<!DOCTYPE svg PUBLIC "-//W3C//DTD SVG 1.1//EN" "http://www.w3.org/Graphics/SVG/1.1/DTD/svg11.dtd">
<svg width="1200pt" height="800pt" viewBox="0 0 1200 800" version="1.1" xmlns="http://www.w3.org/2000/svg">
<path fill="#ffffff" d=" M 0.00 0.00 L 1200.00 0.00 L 1200.00 800.00 L 0.00 800.00 L 0.00 0.00 Z" />
<path fill="#000000" d=" M 1011.57 112.83 C 1017.75 111.91 1024.38 110.33 1030.47 112.55 C 1034.16 114.82 1036.08 118.95 1039.04 122.00 C 1042.09 125.19 1044.96 128.79 1045.81 133.26 C 1046.40 136.98 1048.80 139.93 1051.01 142.85 C 1054.41 141.50 1057.74 139.79 1061.40 139.24 C 1064.85 138.76 1067.99 140.63 1071.06 141.90 C 1085.65 147.94 1097.46 161.94 1098.53 177.99 C 1098.86 187.01 1092.53 193.94 1086.69 199.97 C 1094.41 205.07 1103.80 208.95 1108.48 217.44 C 1110.51 222.09 1113.43 226.64 1113.66 231.84 C 1113.08 242.65 1107.29 252.40 1100.44 260.46 C 1096.70 264.93 1091.07 266.82 1085.81 268.82 C 1088.28 276.67 1093.98 283.94 1092.35 292.64 C 1090.57 299.57 1091.04 307.08 1087.64 313.55 C 1085.19 318.26 1082.96 323.30 1078.97 326.94 C 1073.38 331.92 1067.89 338.14 1059.93 338.83 C 1054.05 339.07 1048.35 341.15 1042.44 340.52 C 1040.00 344.94 1034.56 344.73 1030.25 343.81 C 1026.52 342.84 1022.81 344.44 1019.06 344.18 C 1012.08 343.48 1005.49 340.38 1000.26 335.74 C 994.32 331.19 991.71 323.83 989.71 316.90 C 986.01 317.59 982.18 318.56 978.45 317.56 C 972.46 316.07 967.19 312.42 962.84 308.14 C 958.98 304.26 957.00 299.07 955.12 294.05 C 948.23 298.55 939.92 300.81 931.72 299.28 C 923.44 297.64 914.23 296.33 908.15 289.86 C 902.89 284.02 897.79 277.45 896.48 269.47 C 894.24 263.35 895.05 256.62 897.95 250.87 C 894.50 246.32 891.66 241.34 888.23 236.78 C 880.64 227.17 877.78 214.06 880.22 202.12 C 881.59 195.22 887.59 190.88 892.64 186.62 C 896.34 183.44 901.26 182.26 906.05 182.23 C 908.33 176.31 910.17 170.13 913.67 164.77 C 917.98 157.90 923.93 152.33 929.20 146.22 C 935.68 137.80 942.62 129.49 951.42 123.39 C 955.12 120.83 959.91 118.76 964.39 120.57 C 972.11 122.82 978.08 128.28 983.86 133.60 C 987.51 128.72 991.49 123.86 997.04 121.04 C 1002.03 118.56 1006.52 115.14 1011.57 112.83 Z" />
<path fill="#ffffff" d=" M 1008.97 123.98 C 1012.08 123.08 1015.04 121.11 1018.41 121.41 C 1021.19 121.57 1024.00 121.45 1026.77 121.92 C 1030.79 125.96 1036.31 129.65 1037.04 135.77 C 1038.02 139.97 1040.46 143.64 1043.03 147.04 C 1045.46 149.59 1048.85 151.06 1052.19 152.00 C 1056.34 153.03 1059.95 150.04 1063.95 149.66 C 1070.87 151.51 1077.48 155.40 1081.65 161.35 C 1086.53 167.34 1090.72 176.17 1086.50 183.61 C 1082.47 189.43 1077.51 194.56 1072.51 199.55 C 1070.65 201.14 1070.89 204.71 1073.32 205.62 C 1077.22 207.27 1081.83 207.11 1085.35 209.69 C 1088.66 212.02 1092.31 213.93 1095.33 216.68 C 1098.13 219.11 1099.35 222.72 1101.39 225.73 C 1102.16 227.28 1103.65 228.78 1103.32 230.66 C 1101.69 239.95 1097.64 249.15 1090.58 255.60 C 1085.33 260.23 1077.61 258.56 1071.61 261.59 C 1070.21 263.60 1070.16 266.33 1071.52 268.37 C 1074.52 272.71 1079.20 275.81 1081.23 280.82 C 1083.18 284.55 1082.50 288.88 1081.76 292.83 C 1080.84 297.33 1081.13 302.05 1079.48 306.39 C 1077.31 312.06 1074.12 317.49 1069.39 321.40 C 1065.90 324.26 1064.07 329.01 1059.58 330.61 C 1056.51 332.33 1053.24 329.57 1050.03 329.97 C 1046.27 330.51 1042.44 331.31 1038.72 330.12 C 1036.75 332.73 1034.63 336.00 1030.97 336.07 C 1021.88 336.67 1011.17 336.72 1004.47 329.49 C 1001.02 326.73 1000.68 322.11 999.68 318.15 C 999.12 315.67 997.88 313.42 997.30 310.96 C 997.64 308.74 998.47 306.63 999.12 304.49 C 997.47 303.93 995.85 303.12 994.10 303.11 C 988.74 304.20 984.38 309.84 978.56 308.30 C 974.32 306.67 970.51 303.83 967.60 300.36 C 964.20 294.50 965.61 287.44 965.60 281.00 C 963.52 280.83 961.34 280.22 959.36 281.15 C 953.37 283.72 947.49 286.55 941.82 289.76 C 935.16 293.44 927.33 291.34 920.43 289.56 C 913.76 288.08 909.58 281.88 906.88 276.08 C 905.19 270.81 901.89 265.10 904.48 259.55 C 906.42 255.28 907.55 250.25 905.30 245.84 C 898.95 236.14 890.09 227.04 888.85 214.96 C 888.62 210.34 887.25 205.17 890.02 201.02 C 892.62 196.30 897.48 193.67 902.04 191.19 C 903.50 192.35 904.89 193.66 906.56 194.54 C 908.59 195.07 910.71 194.36 912.76 194.17 C 913.28 190.99 913.39 187.68 914.79 184.71 C 917.54 178.83 919.37 172.48 923.10 167.09 C 928.51 159.02 935.51 152.19 941.73 144.78 C 945.54 139.65 949.85 134.78 955.19 131.20 C 959.02 128.50 964.47 128.22 968.55 130.49 C 973.05 133.56 976.66 137.73 979.98 142.00 C 981.51 144.32 984.99 145.05 987.23 143.33 C 991.90 140.25 994.02 134.78 998.12 131.12 C 1001.38 128.28 1004.72 125.24 1008.97 123.98 Z" />
<path fill="#000000" d=" M 402.32 139.49 C 407.22 138.49 411.86 136.29 416.90 135.99 C 422.97 135.42 428.94 136.97 434.97 137.35 C 443.25 137.90 451.19 141.22 459.59 140.49 C 463.45 139.76 466.26 143.63 466.64 147.05 C 466.22 151.42 464.84 155.82 465.90 160.23 C 467.52 168.43 465.68 176.72 464.77 184.89 C 462.57 192.41 456.84 198.15 452.74 204.62 C 449.65 213.36 443.82 220.84 437.41 227.41 C 432.48 233.05 426.23 237.52 419.36 240.46 C 411.48 243.85 403.38 246.75 395.08 248.92 C 390.16 250.01 385.06 249.60 380.10 250.36 C 375.11 250.97 370.29 253.11 365.18 252.54 C 359.99 251.86 355.20 249.39 349.99 248.78 C 345.69 248.20 341.41 250.24 337.13 249.15 C 333.99 248.64 330.92 247.17 327.68 247.67 C 323.35 248.17 319.64 250.71 316.22 253.23 C 313.71 255.19 314.06 258.87 312.11 261.22 C 310.06 262.95 307.34 263.51 304.89 264.41 C 305.07 265.85 305.25 267.30 305.45 268.75 C 309.62 268.77 313.79 268.36 317.95 268.69 C 333.68 270.48 349.38 266.27 365.10 267.87 C 372.83 269.30 380.68 270.82 387.82 274.24 C 391.23 275.72 392.39 279.48 393.75 282.62 C 398.97 282.29 404.36 281.81 409.42 283.49 C 417.23 286.06 424.57 289.97 431.24 294.77 C 438.66 299.73 442.64 308.01 448.51 314.49 C 454.92 321.86 457.98 331.35 464.01 338.96 C 466.40 342.38 467.65 346.46 470.22 349.77 C 477.87 359.22 478.81 371.85 482.85 382.93 C 485.78 390.56 486.55 398.75 488.10 406.72 C 489.64 422.78 488.00 438.93 488.88 455.02 C 488.30 475.01 483.22 494.65 476.25 513.30 C 469.31 527.87 461.87 542.20 454.61 556.61 C 444.81 571.40 434.41 586.19 420.41 597.35 C 418.15 599.07 416.01 600.94 414.09 603.03 C 409.26 608.31 402.73 611.61 396.06 613.95 C 390.36 615.87 385.89 620.11 380.36 622.39 C 376.29 624.17 372.43 626.39 368.59 628.62 C 364.12 631.24 359.12 632.70 354.19 634.16 C 355.09 636.44 356.68 638.93 355.39 641.40 C 353.64 642.65 351.29 643.11 349.44 641.78 C 348.12 640.00 348.49 637.70 348.54 635.64 C 342.45 636.68 336.29 636.06 330.20 635.52 C 327.53 635.03 325.38 636.95 323.06 637.90 C 320.71 639.12 317.98 638.53 315.46 638.38 C 310.25 637.70 305.04 638.85 299.82 638.50 C 296.27 638.29 292.93 639.68 289.54 640.48 C 282.07 642.44 274.26 640.85 266.72 642.29 C 257.57 642.14 248.84 638.81 240.31 635.81 C 235.72 634.56 231.17 633.20 226.75 631.44 C 218.54 628.30 209.39 630.13 201.21 626.91 C 196.03 625.00 190.47 624.07 185.61 621.36 C 180.60 618.54 175.53 615.65 171.39 611.60 C 167.86 608.40 165.52 604.18 162.29 600.71 C 156.15 594.44 150.45 587.67 145.81 580.20 C 143.18 576.07 141.92 571.14 138.63 567.43 C 136.64 565.04 134.01 563.14 132.72 560.23 C 130.12 554.49 124.44 551.10 121.20 545.78 C 117.84 540.29 111.95 536.66 109.60 530.50 C 105.14 520.04 100.76 509.39 98.79 498.13 C 97.87 493.66 95.78 489.51 95.21 484.96 C 94.31 478.21 93.26 471.49 92.36 464.74 C 91.57 455.13 92.44 445.41 94.89 436.08 C 96.70 425.87 99.44 415.85 100.82 405.56 C 101.71 399.27 103.59 393.12 106.39 387.42 C 108.73 382.33 112.74 378.30 115.47 373.44 C 119.06 367.21 124.26 362.13 127.95 355.96 C 135.98 342.74 147.16 331.90 157.65 320.67 C 163.63 314.58 171.61 311.27 178.63 306.62 C 189.94 300.60 200.84 293.70 212.77 288.93 C 224.83 285.00 237.10 281.78 249.58 279.48 C 261.31 277.75 272.47 273.47 284.23 271.87 C 281.50 260.17 273.84 250.63 266.62 241.36 C 264.04 237.98 264.82 233.20 262.13 229.87 C 258.74 225.27 257.94 219.47 255.50 214.41 C 254.75 212.63 253.57 210.96 253.32 209.02 C 253.50 206.53 253.92 204.04 254.72 201.68 C 258.13 198.93 262.36 197.40 266.06 195.07 C 270.16 192.65 275.91 190.38 280.06 193.96 C 285.26 198.33 285.60 205.73 287.29 211.86 C 288.02 216.78 291.68 220.56 292.51 225.43 C 293.90 231.38 295.32 237.32 296.51 243.31 C 297.00 246.19 298.94 248.47 300.70 250.69 C 304.93 247.21 309.02 243.36 314.17 241.28 C 316.51 240.08 319.63 239.46 320.78 236.80 C 322.23 233.84 322.55 230.50 323.48 227.37 C 325.15 220.50 329.17 214.57 332.49 208.42 C 336.21 201.93 338.92 194.94 342.28 188.26 C 345.20 182.10 349.11 176.49 352.79 170.77 C 356.55 164.90 362.54 161.08 368.08 157.08 C 378.48 149.54 389.61 142.33 402.32 139.49 Z" />
<path fill="#70941d" d=" M 382.75 160.68 C 394.79 153.64 407.91 147.77 421.95 146.56 C 434.09 145.71 445.63 150.14 457.49 151.86 C 457.70 159.67 458.00 167.49 457.70 175.31 C 457.53 178.56 457.37 181.95 455.81 184.89 C 454.46 187.46 452.65 189.74 451.22 192.26 C 448.79 196.33 447.85 201.14 444.97 204.96 C 440.48 211.37 433.61 215.68 429.45 222.35 C 428.48 219.90 427.67 217.24 425.80 215.32 C 420.53 215.30 415.51 217.17 410.40 218.19 C 403.01 219.69 395.65 221.69 388.06 221.79 C 382.24 221.87 376.41 221.89 370.60 222.38 C 371.21 225.12 370.89 228.72 373.60 230.42 C 376.25 232.31 379.67 232.21 382.78 232.12 C 390.38 231.64 398.10 231.68 405.49 229.61 C 411.97 227.76 418.62 226.62 425.20 225.22 C 420.35 229.32 414.63 232.17 408.96 234.93 C 403.49 237.49 397.89 240.00 391.88 240.91 C 385.49 241.89 378.99 240.97 372.59 241.76 C 369.06 242.11 365.46 242.84 361.95 241.99 C 356.59 240.77 351.52 238.20 345.94 238.05 C 340.79 237.84 335.93 239.78 331.04 241.10 C 331.16 232.20 335.16 224.12 339.59 216.63 C 346.36 205.14 350.51 192.21 358.34 181.35 C 364.91 172.85 373.23 165.69 382.75 160.68 Z" />
<path fill="#222d09" d=" M 429.72 166.80 C 433.63 161.17 437.78 155.13 444.11 152.04 C 447.05 151.96 448.95 155.06 448.60 157.75 C 448.20 161.22 445.79 163.99 443.68 166.61 C 438.36 172.60 433.80 179.67 426.44 183.40 C 419.14 187.14 413.77 193.51 407.04 198.08 C 399.97 202.99 393.26 208.42 385.87 212.85 C 380.58 216.03 374.72 218.14 369.56 221.54 C 362.17 226.42 354.47 230.97 346.22 234.23 C 343.65 235.63 339.69 234.24 339.74 230.98 C 340.12 228.20 342.77 226.48 344.82 224.89 C 353.06 219.50 361.16 213.87 369.79 209.11 C 368.76 205.67 367.68 202.05 368.57 198.44 C 369.47 194.25 370.24 190.02 370.40 185.72 C 370.51 181.20 373.69 177.69 375.95 174.03 C 378.50 170.32 380.69 166.06 384.60 163.57 C 387.01 162.01 389.64 164.52 390.59 166.65 C 392.32 169.41 389.65 172.03 388.39 174.36 C 381.76 183.92 378.09 195.11 375.44 206.34 C 384.16 203.15 390.95 196.64 398.41 191.37 C 404.97 186.65 410.71 180.89 417.53 176.53 C 421.84 173.64 426.71 171.20 429.72 166.80 Z" />
<path fill="#32420d" d=" M 404.48 163.45 C 405.86 160.20 408.68 156.61 412.64 157.15 C 415.04 158.62 416.54 161.66 415.37 164.40 C 413.16 170.59 409.80 176.31 407.58 182.50 C 405.72 181.67 403.55 181.23 402.09 179.74 C 401.04 174.25 402.35 168.54 404.48 163.45 Z" />
<path fill="#000000" d=" M 1017.83 174.92 C 1019.93 173.46 1021.93 170.79 1024.80 171.36 C 1029.57 171.56 1030.63 176.99 1032.65 180.35 C 1034.25 184.86 1037.69 188.54 1039.03 193.10 C 1038.29 198.35 1038.48 203.61 1038.82 208.88 C 1037.85 215.83 1040.14 222.79 1038.74 229.70 C 1035.55 234.08 1030.81 237.03 1026.52 240.23 C 1027.33 248.43 1028.00 256.69 1027.20 264.92 C 1026.72 268.98 1028.48 274.81 1024.22 277.31 C 1020.75 280.15 1016.19 276.74 1014.52 273.48 C 1012.08 265.55 1012.67 257.17 1012.30 248.99 C 1011.84 234.54 1017.95 220.22 1014.00 205.85 C 1012.73 198.61 1015.82 191.55 1015.46 184.31 C 1015.67 181.14 1014.67 176.96 1017.83 174.92 Z" />
<path fill="#000000" d=" M 965.32 174.56 C 967.36 175.00 970.62 173.92 971.47 176.47 C 972.25 180.39 971.34 184.41 971.65 188.37 C 971.97 192.18 971.13 195.96 971.21 199.77 C 972.49 204.17 975.06 208.54 979.41 210.49 C 981.13 203.93 978.69 197.31 979.87 190.73 C 980.63 186.25 980.32 181.67 981.08 177.20 C 982.79 175.01 985.93 175.62 987.92 177.06 C 989.70 179.70 989.06 183.05 988.99 186.04 C 988.84 191.16 987.77 196.32 988.81 201.41 C 989.34 204.35 989.31 207.35 989.33 210.33 C 991.48 208.84 994.01 207.70 995.70 205.63 C 996.52 202.14 995.93 198.53 995.87 194.99 C 995.71 188.78 995.74 182.55 995.12 176.37 C 995.61 176.03 996.58 175.36 997.07 175.03 C 999.19 176.98 1001.79 178.57 1003.27 181.12 C 1003.73 189.66 1002.91 198.27 1004.23 206.78 C 1004.77 209.76 1005.00 214.02 1001.45 215.22 C 997.00 216.38 993.10 218.82 989.31 221.34 C 989.44 225.52 988.97 229.69 988.98 233.87 C 990.12 236.67 992.35 239.01 992.80 242.09 C 993.82 248.46 993.96 254.93 993.77 261.36 C 993.65 265.49 995.68 269.50 994.86 273.62 C 992.25 276.52 987.71 276.32 984.13 276.32 C 978.92 271.84 976.87 264.67 976.67 258.01 C 976.53 252.35 976.22 246.49 978.25 241.09 C 981.11 234.27 980.17 226.67 979.75 219.49 C 975.54 218.04 971.09 216.36 968.39 212.63 C 964.66 207.51 961.18 201.30 962.59 194.74 C 963.88 188.06 964.68 181.33 965.32 174.56 Z" />
<path fill="#c0c0c0" d=" M 1024.81 182.55 C 1027.07 186.21 1029.05 190.03 1031.28 193.71 C 1032.95 196.32 1031.61 199.50 1031.58 202.35 C 1030.67 208.31 1033.96 213.96 1033.20 219.90 C 1031.65 223.24 1028.20 225.17 1025.51 227.52 C 1024.54 221.11 1024.84 214.59 1023.76 208.19 C 1022.20 199.68 1023.72 191.02 1024.81 182.55 Z" />
<path fill="#222d09" d=" M 430.47 191.41 C 432.45 191.00 435.11 190.64 436.16 192.86 C 437.99 196.70 434.91 200.84 431.45 202.41 C 425.89 205.00 420.05 207.27 413.95 208.13 C 409.97 209.02 405.50 204.53 407.52 200.64 C 409.00 197.43 412.76 196.62 415.81 195.65 C 420.73 194.36 425.51 192.54 430.47 191.41 Z" />
<path fill="#32420d" d=" M 410.40 218.19 C 415.51 217.17 420.53 215.30 425.80 215.32 C 427.67 217.24 428.48 219.90 429.45 222.35 C 428.08 223.37 426.80 224.56 425.20 225.22 C 418.62 226.62 411.97 227.76 405.49 229.61 C 398.10 231.68 390.38 231.64 382.78 232.12 C 379.67 232.21 376.25 232.31 373.60 230.42 C 370.89 228.72 371.21 225.12 370.60 222.38 C 376.41 221.89 382.24 221.87 388.06 221.79 C 395.65 221.69 403.01 219.69 410.40 218.19 Z" />
<path fill="#010101" d=" M 813.90 247.66 C 818.72 243.35 823.52 238.28 830.07 236.77 C 837.16 235.73 844.50 237.71 850.53 241.49 C 854.85 244.08 857.23 249.73 855.66 254.58 C 855.20 256.35 854.63 258.10 854.14 259.87 C 856.09 260.76 858.62 261.21 859.58 263.41 C 862.55 269.24 864.15 275.72 865.11 282.17 C 865.71 286.50 861.93 289.61 858.65 291.66 C 854.76 294.31 849.87 294.16 845.42 294.98 C 846.03 298.21 848.47 301.98 846.06 305.01 C 844.21 307.48 842.79 310.31 840.57 312.48 C 837.20 314.62 833.66 316.65 829.83 317.83 C 824.59 317.58 820.16 314.07 815.02 313.21 C 810.74 312.89 808.46 308.76 806.36 305.54 C 803.47 300.68 807.20 294.25 803.21 289.90 C 800.31 285.82 796.02 282.91 793.18 278.79 C 791.20 273.78 788.20 268.35 790.03 262.84 C 791.29 258.38 793.07 254.08 794.71 249.76 C 795.88 246.89 797.82 243.59 801.22 243.20 C 805.93 242.45 810.24 245.00 813.90 247.66 Z" />
<path fill="#ffffff" d=" M 832.69 245.75 C 838.06 244.28 843.88 246.14 847.96 249.79 C 846.14 253.59 843.41 256.87 841.61 260.68 C 839.82 263.97 842.50 268.43 846.21 268.52 C 849.03 269.19 853.33 268.04 854.40 271.66 C 855.65 274.98 857.45 278.75 856.42 282.32 C 853.02 287.25 846.58 289.02 840.83 288.47 C 838.70 287.93 836.93 289.90 837.06 291.92 C 837.73 295.14 840.50 297.29 841.84 300.18 C 842.39 302.63 839.99 304.08 838.54 305.58 C 835.78 307.93 834.46 311.39 832.40 314.28 C 828.87 312.30 825.79 309.31 821.73 308.46 C 819.52 307.79 816.75 307.74 815.44 305.52 C 812.78 302.15 814.18 297.58 813.19 293.71 C 811.54 291.43 808.88 290.02 807.53 287.51 C 805.87 284.43 804.94 280.98 802.79 278.18 C 800.11 274.56 798.07 269.94 799.09 265.37 C 800.11 260.28 801.80 255.24 804.80 250.95 C 807.54 254.62 809.12 260.95 814.85 260.49 C 820.40 255.19 825.13 248.42 832.69 245.75 Z" />
<path fill="#ca0000" d=" M 309.76 279.24 C 317.51 279.66 325.27 281.04 333.04 279.96 C 348.18 278.98 364.04 276.34 378.59 282.09 C 372.18 282.37 365.66 280.67 359.34 282.37 C 354.13 283.78 348.96 285.52 344.26 288.23 C 338.14 291.73 331.74 294.82 326.15 299.17 C 322.83 301.76 319.42 304.24 315.82 306.43 C 314.67 301.06 314.19 295.55 312.62 290.28 C 311.53 286.64 310.48 282.98 309.76 279.24 Z" />
<path fill="#ca0000" d=" M 266.50 287.43 C 273.20 285.43 279.94 283.14 286.97 282.74 C 288.88 282.24 289.72 284.09 290.57 285.41 C 294.98 292.95 296.81 301.59 298.67 310.03 C 292.50 306.33 285.73 302.77 278.39 302.61 C 274.97 302.47 273.02 305.66 270.44 307.33 C 267.24 307.40 264.17 306.18 260.99 306.01 C 255.69 305.50 250.90 308.24 246.16 310.15 C 240.05 312.86 232.96 312.55 227.16 316.08 C 219.73 320.57 211.49 324.02 205.35 330.32 C 198.98 336.97 191.23 342.36 186.19 350.20 C 181.55 357.49 174.97 363.50 171.55 371.55 C 167.66 379.43 166.11 388.13 163.47 396.45 C 160.44 409.89 159.46 423.69 157.31 437.29 C 156.15 444.13 156.74 451.13 158.15 457.89 C 160.63 468.65 159.79 480.00 163.70 490.45 C 169.19 504.48 175.63 518.27 184.30 530.64 C 189.45 538.19 194.07 546.09 199.55 553.41 C 204.34 559.24 209.33 564.97 215.08 569.88 C 218.14 572.49 221.12 575.19 223.95 578.05 C 231.22 585.41 240.69 589.90 248.81 596.19 C 260.47 605.09 272.97 612.80 285.19 620.89 C 288.14 622.91 290.22 625.87 292.29 628.73 C 287.75 630.38 283.03 631.81 278.15 631.64 C 270.39 631.38 262.49 632.35 254.91 630.18 C 246.48 627.78 238.04 625.40 229.83 622.31 C 222.19 619.46 213.83 620.20 206.08 617.81 C 198.00 615.41 189.33 614.96 181.67 611.21 C 178.89 609.92 178.25 606.66 177.04 604.14 C 174.82 598.70 169.92 595.16 165.99 591.03 C 160.75 585.66 156.97 579.12 153.23 572.67 C 150.40 568.44 147.97 563.97 145.29 559.65 C 139.54 551.55 132.33 544.64 126.09 536.94 C 121.17 531.75 116.28 526.25 113.82 519.41 C 111.45 512.37 109.54 505.18 108.04 497.90 C 106.85 492.24 104.54 486.85 103.88 481.07 C 102.79 471.69 101.55 462.31 101.35 452.86 C 101.26 446.80 103.55 441.10 105.17 435.36 C 108.24 423.51 109.33 411.24 112.34 399.38 C 114.05 392.29 118.90 386.67 122.48 380.49 C 126.37 373.88 131.75 368.32 135.75 361.79 C 142.09 351.15 150.74 342.11 159.87 333.85 C 164.27 329.53 168.73 325.12 174.26 322.25 C 182.86 317.68 191.06 312.42 199.45 307.50 C 212.76 300.63 227.05 295.74 241.68 292.60 C 249.87 290.43 258.39 289.87 266.50 287.43 Z" />
<path fill="#5b0000" d=" M 317.85 291.99 C 320.85 288.62 324.54 284.07 329.64 285.32 C 330.18 287.26 330.76 289.60 329.50 291.40 C 328.23 293.01 326.55 294.22 324.96 295.49 C 322.61 294.27 320.23 293.12 317.85 291.99 Z" />
<path fill="#fe8c8c" d=" M 255.30 292.32 C 261.17 291.32 266.87 288.77 272.94 289.26 C 278.34 289.84 283.97 291.18 288.07 294.98 C 286.17 296.87 284.31 298.79 282.51 300.76 C 278.20 297.43 273.97 292.83 268.15 292.71 C 262.92 293.17 257.80 294.49 252.67 295.59 C 246.64 296.87 241.25 299.96 235.48 301.98 C 236.37 299.87 236.94 297.24 239.22 296.19 C 244.17 293.56 249.92 293.46 255.30 292.32 Z" />
<path fill="#ffea97" d=" M 338.57 303.63 C 346.69 299.65 354.46 294.69 363.31 292.49 C 369.21 291.53 375.10 293.34 381.02 293.24 C 390.33 293.56 399.95 291.11 409.03 294.14 C 418.32 297.39 427.12 302.99 432.86 311.13 C 438.10 318.23 443.87 324.97 448.42 332.57 C 450.70 336.49 453.62 339.97 456.16 343.70 C 458.29 347.72 459.13 352.37 461.97 356.04 C 466.82 362.37 467.92 370.45 470.14 377.90 C 472.05 385.59 475.84 392.75 476.79 400.69 C 478.27 408.62 478.03 416.72 478.59 424.75 C 479.12 432.15 478.03 439.57 478.81 446.96 C 479.23 450.88 479.36 454.84 478.82 458.76 C 477.75 466.77 476.73 474.82 474.60 482.64 C 473.11 488.19 472.99 494.12 470.42 499.37 C 465.87 512.73 459.16 525.21 452.69 537.70 C 448.43 547.81 442.04 556.82 435.73 565.72 C 431.98 571.23 426.31 575.02 422.48 580.46 C 416.17 589.58 405.65 594.21 397.88 601.85 C 391.70 608.16 382.71 609.63 374.82 612.76 C 366.72 615.78 359.92 621.81 351.25 623.35 C 339.07 626.93 326.33 623.83 314.51 620.38 C 308.02 618.29 300.49 620.44 294.63 616.37 C 287.19 611.16 279.77 605.94 272.34 600.73 C 263.44 595.47 255.43 588.90 246.87 583.16 C 240.93 579.57 234.77 576.14 229.90 571.11 C 223.34 563.99 215.13 558.50 209.30 550.69 C 203.94 543.65 198.50 536.64 193.90 529.07 C 189.18 521.88 184.57 514.56 181.39 506.54 C 178.28 498.86 173.27 491.94 171.58 483.72 C 170.15 476.30 169.65 468.74 168.58 461.27 C 167.40 453.97 166.67 446.50 167.54 439.13 C 169.67 426.25 169.52 412.96 173.41 400.40 C 175.10 395.23 175.64 389.75 177.69 384.69 C 180.13 378.46 182.79 372.23 186.81 366.83 C 192.44 359.21 197.50 351.00 204.72 344.73 C 210.04 340.03 214.66 334.41 220.89 330.85 C 224.68 328.61 228.57 326.57 232.34 324.30 C 237.37 321.01 243.82 322.68 249.12 320.14 C 254.26 317.92 259.80 314.55 265.58 316.41 C 272.05 317.56 276.82 323.16 283.59 323.18 C 284.73 321.48 285.85 319.77 286.97 318.06 C 290.75 319.33 294.48 320.94 298.48 321.44 C 301.08 321.75 303.50 320.40 306.06 320.24 C 308.71 320.39 311.24 321.77 313.92 321.38 C 317.72 320.59 320.00 317.16 322.82 314.82 C 327.94 310.92 333.14 307.08 338.57 303.63 Z" />
<path fill="#010101" d=" M 767.44 300.31 C 773.16 298.54 779.38 301.56 783.72 305.26 C 788.68 309.25 790.60 315.77 790.95 321.89 C 790.74 326.58 786.69 329.79 782.94 331.93 C 777.76 334.82 771.34 334.51 766.14 331.88 C 762.31 329.80 756.24 331.54 754.27 326.68 C 752.63 322.27 750.78 316.91 753.59 312.56 C 756.98 307.37 761.51 302.55 767.44 300.31 Z" />
<path fill="#fe8d8d" d=" M 195.66 311.60 C 202.50 308.04 209.43 302.06 217.68 303.90 C 212.51 306.77 206.70 308.35 201.84 311.78 C 194.80 316.24 189.29 322.55 183.06 328.00 C 182.36 326.98 181.66 325.97 180.96 324.96 C 184.58 319.27 189.64 314.67 195.66 311.60 Z" />
<path fill="#fefefe" d=" M 761.70 318.05 C 763.82 314.20 767.09 310.64 771.21 308.93 C 774.79 307.37 777.85 310.49 780.00 312.96 C 781.36 315.25 782.35 318.04 782.06 320.74 C 777.36 326.06 769.72 325.42 763.55 327.68 C 762.96 324.46 761.99 321.31 761.70 318.05 Z" />
<path fill="#fe8c8c" d=" M 202.40 321.28 C 207.78 315.37 215.81 312.77 223.41 311.16 C 219.57 315.02 214.65 317.49 209.82 319.85 C 207.53 321.05 204.92 321.21 202.40 321.28 Z" />
<path fill="#fe4949" d=" M 196.83 325.07 C 199.99 323.92 203.30 325.55 206.38 326.29 C 199.85 329.42 192.18 330.67 187.00 336.15 C 183.53 338.72 185.97 343.76 183.79 346.87 C 181.47 349.24 178.65 346.15 176.41 345.20 C 170.00 349.92 166.81 357.32 161.94 363.36 C 162.25 360.57 162.43 357.55 164.29 355.28 C 167.54 350.91 171.57 347.19 175.00 342.95 C 171.08 344.79 167.09 346.84 164.34 350.30 C 159.32 356.66 154.76 363.54 152.07 371.23 C 150.04 377.07 147.61 382.77 144.79 388.28 C 144.61 386.56 144.43 384.85 144.25 383.13 C 143.37 383.37 142.50 383.62 141.63 383.86 C 142.67 380.70 143.48 377.32 145.61 374.67 C 147.42 372.35 149.31 370.10 151.02 367.72 C 144.82 370.62 138.95 375.47 136.77 382.16 C 135.05 387.14 142.91 388.13 142.20 392.97 C 142.83 396.91 140.48 400.24 138.00 403.00 C 137.61 399.94 137.25 396.88 136.80 393.84 C 130.30 402.22 127.75 413.09 128.25 423.56 C 125.62 425.28 123.00 427.03 120.38 428.76 C 119.24 426.01 117.33 422.85 118.91 419.90 C 120.59 416.98 123.61 415.18 125.51 412.44 C 126.60 409.31 126.08 405.88 127.03 402.73 C 128.16 400.08 130.60 398.21 131.66 395.54 C 132.09 391.68 131.13 387.58 132.90 383.93 C 135.12 379.09 138.61 374.99 141.66 370.66 C 144.72 366.22 149.51 363.55 154.01 360.81 C 153.66 359.52 153.32 358.25 152.97 356.97 C 149.37 359.65 145.62 362.17 141.59 364.16 C 146.19 356.98 152.84 351.32 160.13 347.01 C 165.08 344.09 169.51 340.39 174.40 337.39 C 177.28 335.45 180.94 336.24 184.03 335.00 C 188.70 332.24 191.98 327.57 196.83 325.07 Z" />
<path fill="#fe8c8c" d=" M 166.72 329.77 C 171.62 326.87 177.43 328.20 182.75 328.67 C 181.72 330.32 180.80 332.10 179.37 333.46 C 176.32 334.14 173.10 333.31 170.09 334.21 C 166.11 336.70 163.97 341.11 160.95 344.57 C 158.89 338.98 162.08 332.93 166.72 329.77 Z" />
<path fill="#010100" d=" M 314.45 344.10 C 314.07 341.53 316.90 338.92 319.27 340.60 C 322.00 343.06 322.54 347.02 323.32 350.44 C 324.58 360.43 324.54 370.55 324.22 380.59 C 322.28 380.21 319.53 380.50 318.93 378.07 C 315.78 367.06 314.25 355.55 314.45 344.10 Z" />
<path fill="#000000" d=" M 741.00 348.22 C 746.01 347.93 750.77 345.14 755.84 346.01 C 769.59 349.55 782.80 358.12 788.83 371.35 C 791.10 378.79 793.98 386.18 794.60 393.99 C 794.28 400.62 793.01 407.27 793.77 413.93 C 794.17 417.05 795.36 420.22 794.53 423.38 C 792.06 432.61 790.33 442.03 788.48 451.41 C 787.38 460.22 787.15 469.11 787.28 477.98 C 785.80 490.68 786.17 503.98 791.09 515.96 C 794.80 522.88 794.85 531.57 800.58 537.40 C 806.34 542.26 812.70 546.66 819.98 548.87 C 825.35 550.21 830.98 550.18 836.28 551.90 C 840.99 553.72 845.75 549.20 850.33 551.77 C 855.37 554.13 860.99 554.02 866.40 554.68 C 872.83 555.78 879.37 556.74 885.90 555.91 C 890.89 555.18 895.86 557.25 900.83 556.11 C 908.34 554.28 916.75 556.12 923.51 551.56 C 931.85 548.05 939.62 542.39 948.94 541.98 C 956.18 542.91 964.29 544.97 968.68 551.33 C 971.26 555.31 974.22 559.23 975.42 563.89 C 976.11 568.44 975.58 573.30 973.48 577.44 C 970.50 583.77 966.42 589.55 961.60 594.61 C 958.62 597.66 956.79 601.77 953.17 604.19 C 950.23 606.62 946.31 606.94 942.74 607.76 C 938.17 608.69 933.84 610.56 929.22 611.25 C 925.16 612.03 920.62 611.51 917.16 614.17 C 912.48 617.56 906.41 617.04 900.96 617.73 C 893.94 618.51 887.02 616.48 880.02 617.05 C 871.44 618.39 862.69 619.86 854.00 619.09 C 847.28 617.60 840.38 617.14 833.77 615.22 C 828.72 613.75 823.33 615.32 818.34 613.55 C 813.95 612.05 809.26 612.51 804.72 612.61 C 799.87 613.03 795.12 611.69 790.30 611.60 C 780.58 611.04 770.93 609.72 761.46 607.50 C 758.39 606.46 755.61 604.76 752.82 603.15 C 749.36 601.05 745.52 599.30 743.02 595.99 C 740.09 592.26 736.54 589.10 732.87 586.13 C 729.79 583.88 728.92 580.01 727.10 576.87 C 724.08 570.96 718.76 565.92 718.26 558.97 C 717.91 550.87 714.10 543.49 713.36 535.45 C 712.35 527.36 709.76 519.40 710.40 511.17 C 710.69 506.16 711.09 501.06 710.01 496.11 C 708.76 490.12 707.26 484.13 707.08 477.98 C 706.89 472.76 705.31 467.68 705.47 462.44 C 705.53 456.37 707.08 450.33 706.20 444.25 C 703.40 444.99 700.75 446.24 697.89 446.73 C 689.97 447.16 682.83 442.92 676.91 438.08 C 671.70 433.74 669.47 426.60 670.15 419.97 C 670.61 414.01 670.24 407.22 674.40 402.39 C 677.60 398.31 680.61 394.00 684.57 390.60 C 688.34 387.41 693.42 386.84 698.08 385.88 C 698.18 379.61 699.91 372.99 704.59 368.54 C 711.07 362.29 717.70 356.03 725.52 351.47 C 730.23 348.80 735.72 348.45 741.00 348.22 Z" />
<path fill="#efa992" d=" M 748.06 356.02 C 751.68 355.61 755.46 354.46 759.03 355.83 C 768.28 359.21 776.82 365.83 780.73 375.06 C 782.44 380.27 783.77 385.61 785.15 390.91 C 786.15 394.57 785.20 398.32 784.80 401.99 C 783.86 408.33 786.13 414.66 784.96 421.01 C 784.28 430.48 780.53 439.39 779.91 448.86 C 779.28 456.92 778.04 464.95 778.15 473.05 C 777.99 481.77 775.66 490.61 777.75 499.27 C 779.10 505.10 780.08 511.08 782.25 516.70 C 785.80 524.75 787.16 533.65 791.64 541.31 C 793.51 544.15 792.06 547.55 791.34 550.52 C 789.82 555.50 785.29 558.52 781.31 561.42 C 779.05 562.64 779.50 566.31 781.77 567.30 C 785.00 569.27 789.01 567.79 792.01 566.07 C 797.20 562.37 800.85 556.73 802.23 550.51 C 807.99 553.88 814.28 556.60 821.00 557.16 C 823.91 557.71 828.08 557.58 829.32 560.91 C 831.78 568.41 824.78 575.32 827.40 582.87 C 830.34 582.61 833.70 582.11 835.30 579.26 C 839.46 574.26 838.04 567.46 839.60 561.63 C 840.95 557.95 845.65 558.40 848.71 559.24 C 855.14 561.15 861.87 561.46 868.45 562.57 C 869.05 568.93 869.00 575.34 869.62 581.70 C 869.56 584.03 871.97 585.11 873.94 585.41 C 876.03 584.61 877.33 582.53 877.50 580.35 C 878.19 574.99 877.72 569.56 878.06 564.18 C 881.74 563.86 885.46 563.58 889.14 564.07 C 894.64 564.81 900.20 564.25 905.73 564.29 C 906.85 569.60 907.07 575.11 908.64 580.32 C 909.43 583.21 912.90 582.88 915.22 583.48 C 916.20 576.50 914.47 569.50 915.33 562.51 C 926.17 562.27 935.57 556.39 944.91 551.56 C 946.09 559.13 945.93 566.90 947.63 574.38 C 948.80 579.61 953.56 582.74 958.14 584.79 C 954.55 590.18 950.06 595.35 944.03 598.04 C 940.00 599.84 935.82 601.30 931.54 602.39 C 926.61 603.69 921.31 603.33 916.60 605.49 C 910.18 608.11 903.45 611.52 896.30 610.33 C 896.05 604.26 897.42 597.66 893.91 592.24 C 892.37 593.44 889.81 594.03 889.51 596.26 C 888.64 600.63 889.09 605.12 889.15 609.55 C 884.43 609.38 879.71 608.50 875.01 609.12 C 867.51 610.29 859.87 610.74 852.29 610.35 C 854.84 604.60 855.87 598.28 855.85 592.02 C 856.30 588.21 851.91 584.91 848.40 586.15 C 846.39 587.81 846.41 590.60 846.16 592.97 C 845.86 598.03 845.05 603.03 844.34 608.05 C 839.90 606.97 835.51 605.57 830.96 605.09 C 822.78 604.35 814.79 602.31 806.62 601.57 C 808.44 596.70 811.22 592.11 812.00 586.90 C 812.90 583.71 807.85 580.94 805.73 583.50 C 801.02 588.58 799.36 595.70 794.99 601.02 C 791.68 604.07 786.91 602.92 782.98 602.09 C 776.10 600.35 768.96 599.40 762.42 596.52 C 756.51 593.87 750.64 590.61 746.62 585.39 C 749.94 582.93 754.31 580.76 754.61 576.08 C 749.04 574.59 743.31 575.27 737.83 576.73 C 735.16 572.88 732.35 569.14 729.79 565.23 C 726.22 559.99 727.11 553.32 725.33 547.48 C 723.28 540.95 721.84 534.27 720.33 527.61 C 718.70 519.50 718.71 511.20 719.20 502.98 C 719.71 495.45 716.97 488.30 715.82 480.97 C 719.65 482.72 723.52 485.10 727.91 484.72 C 735.38 484.18 742.68 481.25 748.31 476.30 C 749.74 474.88 750.96 473.03 751.09 470.97 C 750.79 468.74 749.87 466.66 749.14 464.56 C 744.75 466.93 740.94 470.27 736.35 472.25 C 732.57 473.91 728.47 474.58 724.46 475.38 C 722.45 471.93 719.09 469.89 715.18 469.35 C 714.58 458.85 717.76 448.35 715.23 437.93 C 717.81 436.72 720.42 434.56 723.45 435.39 C 729.88 436.03 735.11 440.82 741.56 441.19 C 752.78 439.82 759.86 429.67 764.36 420.25 C 767.90 413.72 768.10 405.82 766.23 398.76 C 763.41 391.89 759.23 385.15 752.71 381.24 C 746.14 376.72 737.33 376.59 729.98 379.05 C 723.33 382.49 715.65 384.66 710.82 390.77 C 709.42 389.41 708.01 388.07 706.60 386.75 C 708.39 378.65 714.42 372.71 720.12 367.13 C 723.93 363.41 728.41 360.34 733.33 358.29 C 738.01 356.39 743.14 356.75 748.06 356.02 Z" />
<path fill="#fe8e8e" d=" M 167.64 364.03 C 169.46 362.24 171.31 360.47 173.23 358.78 C 172.52 361.25 171.72 363.69 170.88 366.13 C 169.79 365.42 168.71 364.72 167.64 364.03 Z" />
<path fill="#010000" d=" M 741.48 363.51 C 745.14 362.49 749.24 363.32 752.11 365.86 C 754.77 368.19 758.02 370.87 758.04 374.73 C 755.53 377.92 751.60 375.12 748.46 374.68 C 744.84 373.44 739.32 374.52 737.62 370.21 C 736.24 367.26 738.63 364.25 741.48 363.51 Z" />
<path fill="#010100" d=" M 366.01 372.07 C 369.93 370.94 373.70 368.76 377.90 369.06 C 380.95 369.34 384.03 369.94 386.86 371.16 C 390.90 372.96 392.21 377.86 396.10 379.86 C 399.38 381.52 403.33 382.19 405.84 385.11 C 409.12 388.78 412.21 392.64 415.03 396.69 C 413.94 397.88 412.85 399.07 411.77 400.26 C 409.26 399.24 406.44 398.53 404.51 396.52 C 401.92 393.75 400.50 390.18 399.10 386.73 C 396.68 386.19 394.19 385.85 391.87 384.98 C 388.43 383.63 386.93 379.11 382.98 378.88 C 378.72 378.60 373.91 377.45 370.17 380.18 C 364.75 383.62 358.45 385.12 352.56 387.51 C 350.34 389.64 348.96 392.65 346.20 394.21 C 343.96 395.54 340.29 395.27 339.18 392.58 C 338.24 390.02 339.51 387.16 341.40 385.38 C 344.18 382.76 347.54 380.87 350.50 378.46 C 354.99 374.94 360.65 373.65 366.01 372.07 Z" />
<path fill="#000000" d=" M 684.46 372.50 C 688.95 371.56 695.92 372.14 697.55 377.31 C 698.26 380.86 693.89 380.80 691.59 381.68 C 687.30 382.58 684.35 386.41 680.07 387.22 C 676.61 386.41 673.70 382.16 675.83 378.84 C 677.84 375.83 681.17 373.87 684.46 372.50 Z" />
<path fill="#fe8e8e" d=" M 158.07 383.01 C 158.69 378.95 163.01 377.31 165.88 375.02 C 162.37 383.05 161.17 391.86 157.54 399.82 C 157.02 394.23 157.02 388.54 158.07 383.01 Z" />
<path fill="#040402" d=" M 322.21 383.40 C 323.91 385.32 324.93 387.66 325.54 390.14 C 323.84 390.15 322.14 390.14 320.44 390.13 C 320.48 387.76 321.14 385.49 322.21 383.40 Z" />
<path fill="#010100" d=" M 292.41 387.24 C 296.69 386.81 300.94 389.28 303.28 392.78 C 304.57 394.73 303.64 397.95 300.95 397.66 C 294.35 396.23 287.61 395.14 281.30 392.67 C 283.52 388.71 288.21 387.59 292.41 387.24 Z" />
<path fill="#ffffff" d=" M 737.39 387.43 C 741.45 386.67 745.84 387.34 749.30 389.67 C 755.13 393.72 758.22 401.00 757.68 408.02 C 757.94 413.09 754.98 417.44 752.64 421.68 C 749.77 426.44 745.92 431.56 739.99 432.29 C 735.89 431.77 733.29 428.19 729.84 426.34 C 727.31 425.07 723.97 425.26 722.18 422.79 C 719.44 419.43 716.68 415.58 716.65 411.05 C 716.23 404.87 718.80 398.54 723.25 394.28 C 727.69 391.53 732.40 388.99 737.39 387.43 Z" />
<path fill="#fe8e8e" d=" M 145.10 389.62 C 146.82 393.73 148.37 398.16 147.94 402.68 C 146.60 403.97 144.97 404.87 143.42 405.86 C 143.08 405.21 142.40 403.91 142.06 403.26 C 143.37 402.73 144.68 402.20 145.99 401.67 C 145.44 397.67 145.02 393.65 145.10 389.62 Z" />
<path fill="#030302" d=" M 371.11 396.53 C 372.71 395.71 374.33 394.92 375.94 394.14 C 376.80 394.94 377.66 395.76 378.53 396.58 C 377.40 397.70 376.43 399.07 374.97 399.80 C 373.17 399.50 372.28 397.72 371.11 396.53 Z" />
<path fill="#fefefe" d=" M 693.49 397.54 C 697.61 395.12 702.85 394.69 707.11 397.05 C 706.22 402.27 704.91 407.60 706.07 412.90 C 706.80 417.94 709.71 422.25 712.66 426.26 C 710.43 429.09 708.22 432.28 704.72 433.62 C 699.42 435.64 692.92 437.90 687.81 434.18 C 685.04 432.02 681.14 429.97 680.93 426.03 C 680.56 421.87 680.04 417.55 681.32 413.50 C 682.32 409.88 684.96 407.10 687.20 404.21 C 689.16 401.87 690.98 399.33 693.49 397.54 Z" />
<path fill="#010100" d=" M 352.81 402.10 C 352.81 399.84 355.42 399.35 357.14 398.89 C 359.72 398.14 361.57 400.49 363.43 401.84 C 361.70 403.89 360.17 407.00 357.04 406.88 C 354.52 407.07 352.81 404.37 352.81 402.10 Z" />
<path fill="#020202" d=" M 260.16 402.75 C 261.52 401.74 262.90 400.77 264.29 399.81 C 264.50 401.80 264.66 403.79 264.85 405.78 C 263.29 404.76 261.72 403.76 260.16 402.75 Z" />
<path fill="#9e0000" d=" M 141.59 412.69 C 144.14 409.68 148.21 408.67 151.65 407.01 C 149.67 413.80 148.77 421.00 150.76 427.92 C 147.93 426.05 144.83 424.63 141.57 423.71 C 141.20 420.07 140.48 416.26 141.59 412.69 Z" />
<path fill="#010101" d=" M 720.07 407.78 C 722.49 407.81 725.12 407.35 727.37 408.51 C 729.21 409.86 730.77 412.32 729.94 414.67 C 728.19 418.17 722.78 418.72 720.33 415.66 C 718.32 413.45 719.77 410.33 720.07 407.78 Z" />
<path fill="#020101" d=" M 325.64 411.81 C 326.64 410.87 327.78 410.11 328.88 409.31 C 332.08 414.34 332.87 420.34 334.09 426.05 C 334.43 428.04 335.18 430.85 332.67 431.72 C 330.51 431.81 328.21 430.87 326.99 429.04 C 325.83 426.12 326.48 422.91 326.31 419.86 C 326.32 417.16 325.39 414.51 325.64 411.81 Z" />
<path fill="#010101" d=" M 685.97 411.02 C 688.47 409.47 692.31 409.31 694.17 411.94 C 696.68 414.48 693.85 417.66 692.60 420.05 C 690.64 419.54 688.55 419.26 686.83 418.15 C 684.65 416.48 684.70 413.22 685.97 411.02 Z" />
<path fill="#040302" d=" M 370.84 411.83 C 372.70 411.52 374.56 411.21 376.42 410.93 C 376.45 412.37 376.54 413.83 376.37 415.28 C 374.80 415.67 373.19 415.85 371.60 416.08 C 371.34 414.66 371.09 413.24 370.84 411.83 Z" />
<path fill="#020101" d=" M 285.25 417.53 C 283.65 413.38 289.83 411.18 292.70 413.35 C 293.24 414.93 293.48 416.59 293.80 418.24 C 290.96 418.76 287.59 419.95 285.25 417.53 Z" />
<path fill="#020201" d=" M 304.41 414.16 C 306.75 413.96 309.66 412.50 311.61 414.51 C 313.18 416.06 311.43 418.36 309.79 419.01 C 307.83 419.04 305.93 418.43 304.04 418.02 C 304.15 416.73 304.28 415.44 304.41 414.16 Z" />
<path fill="#020101" d=" M 310.36 421.23 C 312.55 420.94 316.12 420.37 316.56 423.35 C 316.92 426.18 313.06 428.75 310.48 427.57 C 307.41 426.96 307.31 421.98 310.36 421.23 Z" />
<path fill="#010100" d=" M 248.54 423.36 C 251.39 420.99 255.75 423.65 255.80 427.10 C 255.82 430.57 254.51 433.95 252.80 436.92 C 252.00 438.43 249.80 439.03 248.54 437.73 C 246.14 433.44 245.12 427.40 248.54 423.36 Z" />
<path fill="#010101" d=" M 266.48 427.54 C 269.28 424.95 273.11 426.66 276.15 427.77 C 274.93 430.87 272.80 434.21 268.99 433.94 C 265.60 434.56 263.60 429.41 266.48 427.54 Z" />
<path fill="#a00000" d=" M 140.19 427.92 C 140.62 427.92 141.49 427.91 141.92 427.90 C 143.12 430.88 142.77 434.14 142.54 437.27 C 141.79 445.82 141.00 454.40 141.22 463.01 C 141.48 469.53 139.23 476.01 140.51 482.51 C 141.52 487.69 142.92 492.79 143.84 497.99 C 145.05 504.83 147.63 511.41 147.98 518.41 C 143.83 514.18 142.71 508.26 141.34 502.74 C 140.65 499.50 138.47 496.98 136.62 494.36 C 134.87 492.03 135.17 488.95 134.83 486.22 C 136.06 486.75 137.28 487.29 138.51 487.84 C 137.51 475.60 137.21 463.29 137.87 451.02 C 138.31 443.32 137.49 435.29 140.19 427.92 Z" />
<path fill="#000000" d=" M 357.52 428.59 C 361.44 427.17 364.42 430.80 366.20 433.78 C 370.47 441.14 374.25 449.32 374.11 458.02 C 373.74 462.73 371.46 468.34 366.26 469.30 C 363.28 469.99 359.08 472.39 356.82 469.14 C 352.90 463.42 353.50 456.10 351.06 449.80 C 349.68 445.42 347.33 439.83 350.93 435.92 C 353.06 433.46 354.36 429.91 357.52 428.59 Z" />
<path fill="#840000" d=" M 149.42 431.49 C 151.17 432.66 153.58 433.49 154.24 435.73 C 155.25 439.16 154.66 442.79 154.53 446.31 C 154.07 452.22 154.62 458.14 155.09 464.04 C 155.90 473.40 156.08 482.82 157.42 492.14 C 158.57 492.34 159.72 492.56 160.88 492.78 C 160.85 493.15 160.80 493.88 160.77 494.25 C 159.89 494.44 159.02 494.64 158.14 494.84 C 159.26 501.83 159.09 509.07 161.54 515.80 C 162.79 515.31 164.05 514.84 165.30 514.36 C 165.72 517.29 165.88 520.31 166.95 523.10 C 169.43 524.90 172.41 525.79 174.98 527.45 C 175.17 530.48 172.39 532.44 170.74 534.63 C 172.67 534.47 174.61 534.32 176.54 534.18 C 177.62 544.31 183.09 553.12 188.69 561.34 C 191.02 564.55 194.54 566.52 197.86 568.52 C 197.57 568.85 196.98 569.50 196.69 569.83 C 194.74 569.72 192.79 569.62 190.85 569.51 C 195.43 573.97 199.73 578.88 202.03 584.95 C 201.43 584.84 200.24 584.63 199.65 584.52 C 197.97 582.82 196.24 581.17 194.57 579.47 C 191.02 576.12 189.76 571.13 186.35 567.67 C 181.49 562.68 178.02 555.69 170.69 553.95 C 171.86 550.34 172.48 546.58 172.71 542.80 C 170.87 543.87 169.04 544.97 167.22 546.08 C 167.88 541.95 169.16 537.62 167.95 533.47 C 165.96 528.92 162.15 525.45 160.06 520.94 C 155.96 512.88 156.84 503.56 154.86 494.95 C 153.34 488.56 152.99 481.96 151.45 475.58 C 150.55 471.78 150.07 467.91 149.96 464.02 C 149.67 453.18 148.13 442.32 149.42 431.49 Z" />
<path fill="#010100" d=" M 415.34 433.06 C 416.72 432.21 418.87 433.06 419.34 434.65 C 420.85 437.90 421.96 441.41 422.37 444.99 C 422.53 447.67 419.01 450.66 416.75 448.34 C 413.89 445.61 412.69 441.53 412.32 437.69 C 411.96 435.60 413.63 433.94 415.34 433.06 Z" />
<path fill="#a00000" d=" M 124.18 454.34 C 125.33 448.04 126.76 441.50 131.05 436.50 C 132.26 446.71 126.67 456.06 126.59 466.17 C 126.19 470.58 128.00 475.95 123.94 479.17 C 120.66 471.19 122.76 462.47 124.18 454.34 Z" />
<path fill="#000000" d=" M 304.67 443.41 C 305.24 443.14 306.37 442.59 306.94 442.31 C 310.97 444.40 315.04 446.63 318.65 449.39 C 322.81 454.91 323.99 462.30 323.08 469.06 C 322.91 471.79 322.24 475.12 319.36 476.21 C 315.64 477.38 310.94 478.14 307.79 475.23 C 304.79 472.52 301.98 469.38 300.34 465.66 C 299.06 461.70 299.17 457.46 298.65 453.37 C 297.93 449.07 302.13 446.22 304.67 443.41 Z" />
<path fill="#a10000" d=" M 117.77 449.53 C 118.91 455.10 118.26 460.79 118.55 466.42 C 119.23 477.32 119.10 488.25 118.87 499.16 C 116.84 494.65 114.26 490.42 112.10 485.99 C 109.97 481.69 110.74 476.76 111.57 472.25 C 114.90 477.32 113.71 483.70 115.32 489.33 C 117.39 482.69 115.69 475.77 115.90 469.00 C 116.01 462.47 116.38 455.92 117.77 449.53 Z" />
<path fill="#010100" d=" M 262.04 455.04 C 263.84 453.05 266.53 452.59 269.08 452.55 C 269.24 457.64 267.44 462.64 264.48 466.72 C 262.83 467.85 260.58 467.12 258.70 467.35 C 258.97 463.17 258.41 457.99 262.04 455.04 Z" />
<path fill="#010101" d=" M 392.56 453.02 C 394.65 452.48 396.74 451.84 398.90 451.66 C 401.10 453.35 400.71 456.27 400.81 458.71 C 398.43 458.97 395.74 460.07 393.57 458.54 C 393.05 456.73 392.79 454.87 392.56 453.02 Z" />
<path fill="#010100" d=" M 413.49 457.47 C 413.80 454.44 417.85 452.15 420.11 454.78 C 423.97 465.41 421.73 477.04 418.31 487.49 C 417.53 489.46 416.47 491.31 415.50 493.19 C 413.99 492.79 412.46 492.45 411.03 491.84 C 409.35 485.61 409.38 478.49 412.55 472.71 C 415.07 467.93 413.18 462.53 413.49 457.47 Z" />
<path fill="#020202" d=" M 335.85 456.53 C 336.48 456.08 337.74 455.18 338.37 454.72 C 338.55 456.18 338.72 457.65 338.88 459.12 C 337.86 458.26 336.85 457.40 335.85 456.53 Z" />
<path fill="#010100" d=" M 335.86 465.91 C 337.22 465.79 338.58 465.67 339.95 465.57 C 341.77 469.85 344.22 473.85 345.91 478.19 C 347.77 482.88 345.06 487.82 346.27 492.59 C 347.39 497.49 348.90 502.29 350.08 507.18 C 351.25 511.09 348.69 514.75 348.69 518.64 C 348.69 521.95 348.66 525.27 348.31 528.57 C 345.90 526.11 344.82 522.80 345.48 519.40 C 346.32 514.85 342.80 511.16 342.36 506.78 C 341.53 498.29 339.60 489.96 337.22 481.79 C 335.77 476.63 335.53 471.23 335.86 465.91 Z" />
<path fill="#9e0000" d=" M 130.39 476.39 C 130.87 474.21 134.92 472.65 135.72 475.32 C 136.57 478.37 136.00 481.59 135.90 484.71 C 134.52 485.13 133.13 485.55 131.75 485.98 C 131.08 482.84 129.86 479.63 130.39 476.39 Z" />
<path fill="#020201" d=" M 242.70 475.61 C 243.82 476.43 244.94 477.27 245.98 478.21 C 245.78 479.45 245.51 480.69 245.04 481.87 C 243.75 481.50 242.48 481.10 241.20 480.75 C 241.02 480.10 240.66 478.80 240.48 478.15 C 241.03 477.52 242.14 476.24 242.70 475.61 Z" />
<path fill="#9f0000" d=" M 145.76 477.35 C 147.66 478.58 150.69 479.28 150.76 482.04 C 151.68 488.31 151.31 494.69 151.98 501.00 C 152.58 509.88 155.42 518.45 155.79 527.36 C 153.65 524.51 151.85 521.35 151.16 517.82 C 148.86 507.09 147.39 496.21 145.61 485.39 C 145.18 482.72 145.45 480.01 145.76 477.35 Z" />
<path fill="#010101" d=" M 357.39 481.16 C 360.23 479.53 362.58 482.25 364.52 483.96 C 362.68 485.60 361.04 488.44 358.16 487.94 C 354.51 487.95 354.04 482.15 357.39 481.16 Z" />
<path fill="#010100" d=" M 245.59 482.39 C 247.45 482.33 249.87 482.12 250.91 484.05 C 253.70 488.89 255.58 494.26 256.82 499.70 C 253.76 499.84 250.11 499.65 248.27 496.79 C 245.72 492.61 242.80 487.16 245.59 482.39 Z" />
<path fill="#020201" d=" M 383.73 482.26 C 385.89 482.05 388.05 481.89 390.23 481.78 C 389.84 483.75 390.95 486.69 388.69 487.77 C 386.90 489.42 384.70 487.84 382.81 487.32 C 383.11 485.63 383.42 483.94 383.73 482.26 Z" />
<path fill="#010101" d=" M 267.19 493.99 C 267.69 491.76 269.64 489.87 271.99 489.81 C 274.21 490.04 276.31 490.81 278.45 491.42 C 277.87 494.84 275.46 497.64 272.00 498.36 C 269.86 497.74 267.77 496.23 267.19 493.99 Z" />
<path fill="#020101" d=" M 305.27 491.25 C 307.89 489.28 310.82 491.32 313.32 492.37 C 312.32 495.14 310.45 498.25 307.00 497.70 C 303.32 498.59 301.85 492.48 305.27 491.25 Z" />
<path fill="#020101" d=" M 395.38 494.40 C 397.53 493.80 399.71 494.64 401.26 496.18 C 401.29 499.74 396.74 502.85 393.82 500.20 C 391.66 498.41 392.27 494.55 395.38 494.40 Z" />
<path fill="#020201" d=" M 409.11 495.11 C 410.49 495.21 411.88 495.33 413.28 495.46 C 413.46 496.11 413.83 497.43 414.01 498.09 C 412.00 499.65 409.93 501.14 407.76 502.48 C 408.11 500.00 408.55 497.54 409.11 495.11 Z" />
<path fill="#a10000" d=" M 133.07 519.66 C 131.74 513.07 129.65 505.80 133.32 499.56 C 134.54 506.67 135.53 513.82 136.30 521.00 C 135.22 520.55 134.15 520.10 133.07 519.66 Z" />
<path fill="#030201" d=" M 329.57 504.35 C 331.22 502.69 332.96 501.11 334.72 499.55 C 335.35 500.06 336.63 501.08 337.26 501.59 C 335.38 504.09 332.67 505.36 329.57 504.35 Z" />
<path fill="#010100" d=" M 251.30 505.13 C 250.90 502.38 254.82 499.62 256.70 502.25 C 260.66 506.62 263.35 511.98 265.79 517.30 C 271.29 524.64 280.48 527.31 287.90 532.14 C 291.71 534.25 296.25 534.01 300.45 533.53 C 306.07 533.00 311.88 534.08 317.38 532.39 C 319.90 530.09 321.17 526.46 324.22 524.79 C 328.45 523.49 330.16 529.32 328.34 532.27 C 326.18 535.84 322.87 538.52 320.08 541.59 C 313.61 540.68 307.01 540.43 300.50 541.02 C 295.21 542.48 289.73 541.33 284.50 540.22 C 280.39 539.17 279.04 534.17 275.03 532.94 C 271.40 531.46 267.12 530.73 264.46 527.60 C 261.99 524.75 262.26 520.26 259.04 517.99 C 255.14 514.79 250.80 510.66 251.30 505.13 Z" />
<path fill="#020101" d=" M 362.49 505.95 C 362.42 501.61 367.99 501.50 371.14 501.71 C 370.64 503.64 371.40 506.37 369.40 507.58 C 367.15 509.29 362.95 509.51 362.49 505.95 Z" />
<path fill="#9f0000" d=" M 119.15 506.50 C 120.86 508.38 121.96 510.67 122.99 512.97 C 124.49 513.28 125.99 513.58 127.49 513.90 C 126.47 515.63 125.95 518.26 123.62 518.63 C 121.40 519.27 119.18 517.60 118.45 515.56 C 117.23 512.60 118.17 509.37 119.15 506.50 Z" />
<path fill="#010101" d=" M 290.65 511.18 C 291.98 508.95 294.59 507.71 297.11 507.43 C 298.76 507.61 300.01 508.93 301.42 509.72 C 299.59 512.05 298.05 515.43 294.65 515.57 C 292.05 516.56 289.81 513.59 290.65 511.18 Z" />
<path fill="#020101" d=" M 316.15 510.03 C 318.07 508.20 320.95 508.84 323.34 508.77 C 322.70 510.55 323.48 513.48 321.24 514.22 C 319.50 514.86 317.63 514.99 315.82 515.29 C 315.94 513.56 315.19 511.59 316.15 510.03 Z" />
<path fill="#010100" d=" M 359.88 514.26 C 365.73 515.29 370.53 521.39 376.82 519.08 C 382.66 516.69 388.97 514.75 395.35 515.75 C 392.26 518.89 388.81 521.63 385.48 524.51 C 378.11 530.30 365.90 529.49 360.28 521.65 C 358.38 519.54 359.51 516.68 359.88 514.26 Z" />
<path fill="#5a0000" d=" M 128.01 523.80 C 128.69 523.63 130.03 523.29 130.70 523.12 C 132.23 525.41 133.77 527.70 135.33 529.98 C 136.04 527.73 136.75 525.47 137.51 523.24 C 140.23 527.95 142.09 533.15 145.46 537.48 C 149.44 543.27 154.06 549.15 154.79 556.40 C 152.66 556.27 149.93 557.56 148.26 555.80 C 147.42 552.70 148.57 549.21 146.80 546.35 C 145.22 543.62 143.34 541.07 141.28 538.69 C 138.63 535.56 134.78 533.90 131.74 531.24 C 129.53 529.37 128.91 526.41 128.01 523.80 Z" />
<path fill="#680000" d=" M 147.41 523.52 C 149.76 525.19 152.06 526.95 154.27 528.80 C 151.91 528.19 149.55 527.55 147.20 526.91 C 147.25 526.06 147.36 524.37 147.41 523.52 Z" />
<path fill="#010100" d=" M 349.29 553.25 C 345.68 545.93 342.71 536.19 347.94 528.93 C 351.93 534.13 353.05 540.77 353.85 547.10 C 354.36 550.19 351.49 551.86 349.29 553.25 Z" />
<path fill="#5b0000" d=" M 145.62 533.29 C 149.60 533.77 153.69 534.78 156.45 537.95 C 156.85 536.19 157.27 534.44 157.70 532.71 C 162.58 540.78 166.00 549.60 169.80 558.20 C 170.71 559.89 171.35 562.14 173.33 562.90 C 175.58 563.91 178.05 564.41 180.19 565.68 C 182.00 568.94 181.87 572.95 183.89 576.15 C 186.02 579.49 188.45 582.79 191.66 585.17 C 194.97 587.02 198.76 587.78 202.28 589.15 C 201.65 592.88 202.34 596.61 203.84 600.06 C 198.81 597.60 193.57 595.37 189.27 591.71 C 185.33 588.51 183.50 583.58 180.29 579.76 C 175.25 573.79 171.74 566.79 167.84 560.08 C 164.55 554.51 163.01 547.86 158.26 543.22 C 158.34 546.51 158.60 549.79 158.92 553.06 C 158.42 552.84 157.44 552.40 156.95 552.19 C 155.35 544.75 150.82 538.62 145.62 533.29 Z" />
<path fill="#010101" d=" M 770.47 534.28 C 774.61 531.84 779.92 536.22 778.19 540.76 C 776.32 544.72 771.05 542.35 769.21 539.61 C 769.01 537.90 768.57 535.07 770.47 534.28 Z" />
<path fill="#650000" d=" M 184.88 539.61 C 186.85 541.13 189.06 542.61 190.11 544.97 C 191.62 547.88 192.01 551.29 193.83 554.04 C 195.96 556.15 198.50 557.82 200.63 559.96 C 197.88 559.75 194.66 559.55 193.11 556.88 C 189.55 551.57 187.32 545.49 184.88 539.61 Z" />
<path fill="#010101" d=" M 727.63 546.96 C 731.54 545.82 735.32 547.09 738.59 549.28 C 737.38 552.05 734.89 555.54 731.41 553.85 C 728.28 553.02 728.17 549.55 727.63 546.96 Z" />
<path fill="#efa992" d=" M 954.05 549.65 C 960.12 552.32 963.77 558.20 965.96 564.20 C 966.99 568.59 965.52 573.05 964.00 577.14 C 961.76 576.41 959.41 575.91 957.42 574.64 C 955.35 573.17 954.53 570.61 953.85 568.30 C 952.43 562.18 952.67 555.75 954.05 549.65 Z" />
<path fill="#5a0000" d=" M 157.78 554.41 C 159.93 555.85 161.96 557.60 162.91 560.09 C 166.80 568.90 171.60 577.56 178.70 584.21 C 180.85 586.09 182.13 588.67 183.09 591.32 C 179.05 588.48 174.78 585.95 170.90 582.90 C 163.09 575.29 161.76 564.05 157.78 554.41 Z" />
<path fill="#010100" d=" M 347.05 562.18 C 347.28 559.94 349.53 558.95 350.95 557.54 C 352.98 562.59 354.51 567.82 355.88 573.08 C 356.97 577.44 359.17 581.45 360.02 585.88 C 360.98 591.42 363.40 596.73 362.85 602.46 C 361.02 602.54 359.20 602.63 357.38 602.71 C 354.99 598.94 352.68 595.00 351.69 590.61 C 351.10 587.32 351.29 583.92 350.37 580.69 C 348.93 574.61 346.28 568.54 347.05 562.18 Z" />
<path fill="#020101" d=" M 807.38 564.45 C 810.04 563.98 812.37 566.06 813.68 568.18 C 813.62 570.21 812.11 572.23 809.96 572.31 C 805.83 573.21 802.48 565.67 807.38 564.45 Z" />
<path fill="#010101" d=" M 853.37 568.22 C 856.91 566.97 861.97 572.50 858.20 575.23 C 856.17 576.34 853.18 576.16 851.80 574.13 C 850.36 572.26 850.87 568.87 853.37 568.22 Z" />
<path fill="#5b0000" d=" M 201.26 571.28 C 204.94 570.68 206.58 575.11 208.68 577.37 C 213.01 582.48 216.34 589.45 223.27 591.39 C 221.83 586.69 218.63 582.58 218.38 577.54 C 225.66 583.06 228.73 592.41 236.43 597.49 C 236.13 595.21 235.81 592.95 235.50 590.68 C 237.51 591.87 239.74 592.84 241.31 594.62 C 241.81 596.51 240.84 598.49 240.76 600.43 C 240.31 602.25 241.66 603.80 242.32 605.39 C 243.28 603.64 244.22 601.90 245.14 600.14 C 250.86 603.56 256.40 607.27 261.71 611.30 C 261.61 612.39 261.53 613.50 261.43 614.60 C 263.91 613.90 266.58 612.65 269.13 613.79 C 275.92 616.41 282.37 620.16 287.63 625.25 C 282.37 628.60 275.73 629.10 269.82 627.43 C 264.93 626.10 261.87 621.03 256.71 620.42 C 250.56 620.00 244.16 622.22 238.22 619.80 C 232.09 617.32 226.91 612.46 220.11 611.73 C 214.40 610.55 208.91 613.78 203.24 612.99 C 199.10 611.65 196.70 607.70 193.91 604.64 C 191.34 604.58 188.28 605.69 186.05 604.03 C 184.55 600.13 184.84 595.82 184.33 591.73 C 190.93 594.29 195.93 599.42 199.97 605.08 C 203.48 603.11 207.42 601.26 211.43 603.00 C 209.44 605.12 207.41 607.22 205.47 609.41 C 207.03 609.63 208.59 609.85 210.15 610.08 C 212.56 604.42 212.95 597.99 216.46 592.80 C 211.51 588.28 207.09 583.16 203.35 577.59 C 202.07 575.73 201.18 573.56 201.26 571.28 Z" />
<path fill="#19120f" d=" M 894.26 570.91 C 895.86 571.52 897.48 572.16 899.09 572.82 C 897.85 573.90 896.60 574.97 895.36 576.04 C 894.97 574.33 894.61 572.62 894.26 570.91 Z" />
<path fill="#010000" d=" M 927.34 588.99 C 927.00 585.75 931.68 583.83 933.87 586.09 C 937.24 589.06 938.87 593.54 939.20 597.94 C 933.49 599.35 927.48 594.85 927.34 588.99 Z" />
<path fill="#010100" d=" M 766.31 590.12 C 767.11 587.94 769.53 586.61 771.81 587.08 C 775.02 587.43 776.40 590.80 778.13 593.07 C 775.78 594.61 773.29 597.17 770.21 596.09 C 767.43 595.61 766.31 592.62 766.31 590.12 Z" />
<path fill="#010101" d=" M 981.23 587.86 C 983.40 587.30 985.60 586.51 987.89 586.72 C 990.99 588.70 988.72 594.41 985.06 593.19 C 982.32 592.96 982.07 589.85 981.23 587.86 Z" />
<path fill="#580000" d=" M 205.52 590.78 C 207.77 592.14 209.73 593.89 211.44 595.89 C 209.59 596.36 207.73 596.82 205.88 597.27 C 205.71 595.10 205.60 592.94 205.52 590.78 Z" />
<path fill="#020101" d=" M 875.25 596.26 C 878.23 595.97 882.02 599.27 880.24 602.33 C 878.72 603.96 876.20 603.65 874.39 602.79 C 872.92 600.91 872.54 597.20 875.25 596.26 Z" />
<path fill="#020202" d=" M 976.18 602.79 C 976.07 600.08 978.30 598.44 980.20 596.91 C 980.20 598.59 980.18 600.27 980.16 601.96 C 978.82 602.24 977.50 602.51 976.18 602.79 Z" />
<path fill="#020202" d=" M 1001.38 601.20 C 1003.50 600.92 1005.69 601.74 1007.23 603.22 C 1008.47 605.93 1006.43 609.84 1003.16 608.79 C 999.44 608.64 997.41 602.66 1001.38 601.20 Z" />
<path fill="#020202" d=" M 1039.20 603.12 C 1041.86 602.06 1044.71 601.59 1047.38 602.96 C 1046.51 603.72 1045.66 604.50 1044.80 605.26 C 1045.71 606.57 1046.57 607.91 1047.42 609.29 C 1044.80 609.17 1042.21 608.84 1039.65 608.36 C 1039.48 606.61 1039.34 604.86 1039.20 603.12 Z" />
<path fill="#010101" d=" M 720.24 606.94 C 722.21 606.27 724.52 606.57 725.77 608.40 C 726.01 610.35 726.31 613.61 723.76 614.07 C 720.00 615.68 716.65 608.97 720.24 606.94 Z" />
<path fill="#020202" d=" M 960.59 606.87 C 962.87 606.76 965.17 606.72 967.47 606.70 C 967.52 609.13 967.47 611.56 967.40 613.99 C 965.62 613.69 963.78 613.57 962.15 612.80 C 959.81 611.83 961.00 608.80 960.59 606.87 Z" />
<path fill="#c40000" d=" M 231.41 608.13 C 234.09 608.20 236.76 608.33 239.44 608.48 C 239.26 609.46 238.92 611.43 238.75 612.41 C 236.25 611.07 233.80 609.64 231.41 608.13 Z" />
<path fill="#030303" d=" M 731.32 609.85 C 733.32 609.18 735.27 610.25 737.18 610.74 C 736.80 612.02 736.42 613.31 736.06 614.61 C 734.34 614.46 732.64 614.30 730.94 614.13 C 731.02 612.69 731.14 611.26 731.32 609.85 Z" />
<path fill="#010101" d=" M 747.77 611.14 C 750.41 610.32 753.57 608.89 756.05 610.93 C 759.75 612.64 757.06 618.94 753.21 617.79 C 749.45 617.77 748.12 614.30 747.77 611.14 Z" />
<path fill="#010101" d=" M 761.88 614.27 C 764.43 613.35 767.64 611.47 769.97 613.91 C 772.97 615.63 772.01 619.69 771.32 622.46 C 769.25 624.30 766.26 623.12 764.55 621.41 C 762.87 619.40 762.55 616.69 761.88 614.27 Z" />
<path fill="#010101" d=" M 800.90 617.54 C 802.86 617.45 804.84 617.40 806.82 617.32 C 807.98 619.73 810.40 622.24 809.09 625.07 C 804.66 626.35 800.43 621.92 800.90 617.54 Z" />
<path fill="#020202" d=" M 942.54 616.68 C 944.62 616.64 947.38 616.69 948.01 619.19 C 949.13 621.56 945.47 621.34 944.15 622.27 C 943.45 620.45 942.67 618.64 942.54 616.68 Z" />
<path fill="#030303" d=" M 398.29 622.14 C 399.48 620.68 400.26 618.68 402.06 617.86 C 403.62 618.07 405.14 618.55 406.67 618.98 C 405.64 620.23 404.77 621.65 403.48 622.64 C 401.89 624.00 399.97 622.40 398.29 622.14 Z" />
<path fill="#010101" d=" M 992.60 617.72 C 995.95 617.62 999.21 618.50 1001.60 620.97 C 999.83 622.41 998.14 625.69 995.45 624.57 C 992.39 623.89 993.12 620.03 992.60 617.72 Z" />
<path fill="#010101" d=" M 390.39 619.05 C 392.67 617.85 395.63 619.94 396.81 622.02 C 395.70 624.87 391.61 627.95 389.07 624.91 C 386.73 623.47 388.63 620.19 390.39 619.05 Z" />
<path fill="#020202" d=" M 830.44 619.26 C 833.97 618.03 837.76 622.02 836.48 625.45 C 834.81 629.37 827.72 627.06 828.32 622.99 C 828.09 621.41 829.18 620.04 830.44 619.26 Z" />
<path fill="#010101" d=" M 951.44 619.25 C 955.02 616.73 960.41 621.82 957.41 625.39 C 954.07 628.03 948.55 624.40 949.97 620.29 C 950.34 620.03 951.07 619.51 951.44 619.25 Z" />
<path fill="#020202" d=" M 689.71 620.36 C 691.61 620.19 693.59 619.60 695.48 620.20 C 696.29 621.84 696.82 623.59 697.43 625.32 C 695.71 625.25 693.50 626.38 692.20 624.80 C 691.01 623.55 690.42 621.88 689.71 620.36 Z" />
<path fill="#020202" d=" M 869.17 621.31 C 872.09 621.44 875.74 621.18 877.47 624.12 C 877.79 625.90 877.07 627.69 875.57 628.72 C 872.95 629.42 870.32 627.88 868.73 625.90 C 868.71 624.35 868.95 622.82 869.17 621.31 Z" />
<path fill="#010101" d=" M 763.00 622.58 C 764.24 621.54 766.04 623.64 764.65 624.62 C 763.38 625.66 761.60 623.55 763.00 622.58 Z" />
<path fill="#020202" d=" M 913.40 623.42 C 918.25 621.81 921.92 628.80 917.87 631.73 C 913.79 632.10 909.09 627.08 912.62 623.52 L 913.40 623.42 Z" />
<path fill="#020202" d=" M 412.22 623.58 C 414.15 624.25 416.06 624.99 417.95 625.79 C 417.72 627.17 417.50 628.55 417.28 629.94 C 415.25 629.84 413.22 629.67 411.20 629.47 C 411.47 627.49 411.82 625.53 412.22 623.58 Z" />
<path fill="#010101" d=" M 1051.20 626.41 C 1052.49 625.69 1053.79 624.97 1055.09 624.24 C 1056.09 624.94 1057.10 625.65 1058.12 626.36 C 1055.73 627.16 1053.42 628.12 1051.12 629.10 C 1051.14 628.43 1051.18 627.08 1051.20 626.41 Z" />
<path fill="#010101" d=" M 419.93 628.23 C 421.01 626.23 423.19 625.34 425.07 624.30 C 427.38 627.59 426.02 631.38 424.70 634.75 C 424.37 636.49 422.46 636.47 421.09 636.46 C 419.01 634.24 418.97 630.95 419.93 628.23 Z" />
<path fill="#020202" d=" M 788.73 625.84 C 791.28 625.92 794.73 625.18 796.35 627.76 C 797.93 630.36 795.32 634.32 792.25 632.94 C 788.97 632.21 789.10 628.44 788.73 625.84 Z" />
<path fill="#010101" d=" M 969.25 625.04 C 972.36 626.24 975.34 629.21 974.96 632.78 C 974.09 637.36 966.64 635.10 967.08 631.05 C 967.46 628.94 968.45 627.00 969.25 625.04 Z" />
<path fill="#020202" d=" M 1011.55 628.68 C 1014.09 628.49 1017.08 628.02 1018.97 630.23 C 1018.80 631.83 1018.36 633.39 1017.98 634.96 C 1016.31 634.66 1014.61 634.50 1013.04 633.88 C 1012.34 632.21 1011.97 630.42 1011.55 628.68 Z" />
<path fill="#020202" d=" M 844.23 629.50 C 847.24 629.64 851.90 631.79 850.52 635.51 C 849.78 638.23 846.40 639.44 843.98 638.13 C 840.18 636.86 840.66 630.74 844.23 629.50 Z" />
<path fill="#020202" d=" M 940.51 628.85 C 941.69 630.19 942.84 631.55 943.97 632.96 C 942.38 633.29 940.80 633.62 939.22 633.93 C 939.00 633.19 938.58 631.72 938.37 630.99 C 938.91 630.45 939.97 629.38 940.51 628.85 Z" />
<path fill="#020202" d=" M 382.36 629.66 C 384.73 630.39 387.00 631.40 389.14 632.66 C 388.68 633.99 388.22 635.33 387.77 636.68 C 385.74 637.12 383.72 637.59 381.71 638.07 C 379.87 635.32 380.95 632.32 382.36 629.66 Z" />
<path fill="#020202" d=" M 737.88 630.04 C 740.33 630.39 743.95 629.81 744.55 633.03 C 744.29 635.41 741.73 636.26 739.79 635.27 C 737.75 634.40 738.39 631.78 737.88 630.04 Z" />
<path fill="#010101" d=" M 820.14 638.08 C 820.31 635.39 819.64 631.57 823.05 630.68 C 825.62 631.20 828.84 633.57 827.63 636.54 C 826.31 639.63 822.67 638.41 820.14 638.08 Z" />
<path fill="#010101" d=" M 393.83 632.75 C 397.31 630.86 400.68 633.95 403.32 635.93 C 401.66 636.99 400.17 638.75 398.06 638.73 C 395.58 638.72 393.12 638.32 390.66 638.04 C 391.31 636.08 391.43 633.39 393.83 632.75 Z" />
<path fill="#181818" d=" M 1056.22 632.22 C 1057.84 631.70 1058.40 632.25 1057.89 633.88 C 1056.24 634.39 1055.68 633.83 1056.22 632.22 Z" />
<path fill="#010101" d=" M 713.46 633.49 C 715.33 633.09 718.15 633.09 718.79 635.36 C 719.35 636.74 719.30 638.32 719.03 639.78 C 717.38 642.93 712.39 641.10 711.53 638.21 C 710.88 636.50 711.15 633.59 713.46 633.49 Z" />
<path fill="#020202" d=" M 764.34 632.69 C 766.79 632.96 770.57 631.51 771.95 634.30 C 773.04 636.23 771.07 638.12 769.80 639.38 C 765.82 640.16 764.39 635.83 764.34 632.69 Z" />
<path fill="#010101" d=" M 226.47 635.42 C 228.55 634.32 231.14 634.63 231.95 637.13 C 231.18 640.12 229.46 643.90 225.98 644.25 C 223.38 644.75 220.80 641.69 222.01 639.25 C 222.64 637.22 224.59 636.08 226.47 635.42 Z" />
<path fill="#010101" d=" M 185.49 639.93 C 187.91 637.98 190.50 635.53 193.86 635.82 C 197.48 638.42 193.94 643.11 190.79 643.87 C 188.11 644.35 186.91 641.60 185.49 639.93 Z" />
<path fill="#020202" d=" M 882.56 635.75 C 885.31 636.15 889.59 635.43 890.36 639.05 C 889.69 641.56 886.97 642.60 884.75 641.33 C 882.35 640.66 883.12 637.60 882.56 635.75 Z" />
<path fill="#010101" d=" M 165.97 642.12 C 167.27 639.27 170.75 638.17 173.67 638.34 C 175.75 639.21 176.97 641.32 178.51 642.89 C 176.83 644.22 175.44 646.70 172.98 646.33 C 170.14 646.27 165.86 645.91 165.97 642.12 Z" />
<path fill="#000000" d=" M 513.17 638.00 C 515.94 638.17 519.19 638.04 520.72 640.88 C 518.52 641.14 516.31 641.32 514.10 641.44 C 513.78 640.28 513.47 639.14 513.17 638.00 Z" />
<path fill="#020202" d=" M 155.24 644.81 C 154.92 642.39 156.69 638.43 159.62 639.62 C 160.71 639.89 161.79 640.22 162.86 640.60 C 161.80 642.64 160.87 644.80 159.36 646.58 C 157.95 647.60 155.12 646.79 155.24 644.81 Z" />
<path fill="#010101" d=" M 360.51 642.25 C 361.49 640.00 364.22 639.38 366.10 638.10 C 367.55 641.06 369.00 644.03 370.66 646.89 C 369.12 649.09 368.05 651.57 368.20 654.32 C 371.07 654.22 373.95 654.07 376.84 654.10 C 376.41 655.51 376.04 656.96 375.37 658.29 C 370.97 659.38 366.25 660.13 361.75 659.23 C 359.72 658.89 358.88 656.78 358.39 655.05 C 359.52 652.93 361.28 651.26 362.90 649.54 C 362.02 647.14 360.86 644.80 360.51 642.25 Z" />
<path fill="#010101" d=" M 297.77 640.77 C 300.34 639.64 303.25 640.31 305.96 640.40 C 306.04 642.84 306.22 645.74 303.80 647.20 C 301.09 647.76 298.32 647.25 295.61 646.98 C 296.11 644.91 295.35 641.75 297.77 640.77 Z" />
<path fill="#010101" d=" M 792.64 641.94 C 795.39 640.56 798.42 640.07 801.47 640.57 C 801.36 643.30 801.13 646.03 800.84 648.75 C 796.48 649.15 794.06 645.48 792.64 641.94 Z" />
<path fill="#020202" d=" M 212.03 642.01 C 215.40 640.00 218.68 642.44 220.65 645.15 C 218.04 647.55 214.64 648.94 211.06 648.42 C 208.25 647.01 209.11 642.69 212.03 642.01 Z" />
<path fill="#020202" d=" M 329.37 644.74 C 331.19 643.66 333.05 642.66 334.94 641.72 C 336.39 643.20 337.95 644.61 339.24 646.26 C 340.23 649.43 338.12 653.52 334.38 652.69 C 332.28 650.34 331.02 647.39 329.37 644.74 Z" />
<path fill="#020202" d=" M 443.44 641.68 C 444.33 641.86 446.11 642.21 447.00 642.38 C 446.92 643.63 446.84 644.88 446.76 646.13 C 445.50 646.01 444.25 645.86 443.00 645.69 C 443.09 644.34 443.27 643.01 443.44 641.68 Z" />
<path fill="#020202" d=" M 308.72 648.02 C 309.35 644.94 312.74 644.08 315.27 643.15 C 315.39 645.77 316.67 649.00 314.78 651.26 C 313.03 652.22 311.09 652.74 309.20 653.34 C 308.99 651.56 308.65 649.80 308.72 648.02 Z" />
<path fill="#020202" d=" M 402.71 645.59 C 404.14 643.70 406.77 644.80 408.77 644.76 C 408.47 646.72 408.14 648.68 407.76 650.64 C 405.46 650.53 402.69 651.61 400.85 649.77 C 401.05 648.23 401.61 646.71 402.71 645.59 Z" />
<path fill="#010101" d=" M 988.50 645.69 C 989.72 643.97 992.39 643.63 994.04 644.93 C 996.20 646.27 996.90 648.82 997.82 651.04 C 995.46 651.77 992.84 653.26 990.44 651.84 C 988.29 650.94 986.36 647.45 988.50 645.69 Z" />
<path fill="#020202" d=" M 422.38 645.36 C 424.63 644.12 426.63 647.55 425.40 649.45 C 424.65 651.96 421.72 651.77 419.65 652.16 C 419.77 649.73 419.55 646.35 422.38 645.36 Z" />
<path fill="#010101" d=" M 263.44 648.59 C 267.93 648.45 272.12 646.95 276.38 645.66 C 276.20 648.54 276.93 652.33 274.23 654.30 C 272.94 655.28 271.46 654.25 270.14 653.94 C 267.31 652.73 264.24 653.81 261.30 653.83 C 261.66 652.05 260.89 648.88 263.44 648.59 Z" />
<path fill="#020202" d=" M 285.82 646.80 C 288.06 645.06 290.51 646.98 292.51 648.08 C 290.82 650.30 288.60 652.02 285.91 652.84 C 285.34 650.85 283.94 648.53 285.82 646.80 Z" />
<path fill="#020202" d=" M 142.83 647.13 C 144.85 647.85 146.86 648.59 148.87 649.37 C 148.33 652.76 144.79 655.22 141.61 653.31 C 139.41 651.50 141.92 648.96 142.83 647.13 Z" />
<path fill="#010101" d=" M 240.32 649.56 C 243.03 647.79 246.48 646.85 249.71 647.20 C 252.07 647.60 251.41 650.13 251.26 651.85 C 248.66 654.58 244.71 655.24 241.20 656.11 C 240.75 654.01 238.97 651.65 240.32 649.56 Z" />
<path fill="#020202" d=" M 452.84 648.05 C 454.31 648.19 455.88 647.99 457.27 648.63 C 457.78 650.01 457.97 651.49 458.25 652.95 C 456.20 652.78 454.16 652.55 452.14 652.24 C 452.37 650.84 452.60 649.44 452.84 648.05 Z" />
<path fill="#010101" d=" M 295.68 653.68 C 299.68 652.05 304.17 652.25 308.37 652.88 C 307.59 658.72 301.16 662.75 295.65 660.27 C 294.01 658.62 293.14 654.93 295.68 653.68 Z" />
<path fill="#030303" d=" M 280.41 655.37 C 281.99 654.47 283.59 653.61 285.20 652.77 C 286.51 655.41 286.54 658.18 284.80 660.66 C 282.88 659.30 281.41 657.47 280.41 655.37 Z" />
<path fill="#030303" d=" M 383.60 653.62 C 385.20 652.97 386.95 652.88 388.65 652.61 C 388.54 655.17 387.17 657.26 385.45 659.05 C 384.11 658.47 382.78 657.90 381.46 657.33 C 382.12 656.07 382.54 654.61 383.60 653.62 Z" />
<path fill="#020202" d=" M 190.92 658.07 C 192.74 655.62 195.31 653.40 198.59 654.14 C 199.38 655.21 199.96 656.43 200.63 657.60 C 198.54 658.49 196.52 659.65 194.27 660.08 C 193.12 659.45 192.00 658.78 190.92 658.07 Z" />
<path fill="#020202" d=" M 225.11 656.09 C 227.43 654.96 229.84 654.02 232.32 653.29 C 232.50 654.75 232.74 656.23 232.74 657.73 C 231.89 658.40 230.95 658.92 229.92 659.28 C 227.59 660.19 226.56 657.31 225.11 656.09 Z" />
<path fill="#030303" d=" M 212.30 659.10 C 213.56 657.70 214.87 656.34 216.22 655.03 C 217.24 655.93 218.26 656.83 219.29 657.74 C 217.57 660.22 214.87 660.50 212.30 659.10 Z" />
<path fill="#020202" d=" M 327.93 660.02 C 329.48 657.46 332.24 654.96 335.41 656.59 C 337.61 658.79 335.42 661.62 332.88 662.07 C 330.86 663.14 329.49 660.88 327.93 660.02 Z" />
<path fill="#020202" d=" M 351.79 657.93 C 353.12 657.35 354.52 657.00 355.91 656.59 C 355.86 658.32 355.80 660.06 355.73 661.81 C 353.95 661.76 352.18 661.69 350.42 661.61 C 350.83 660.36 351.21 659.10 351.79 657.93 Z" />
<path fill="#020202" d=" M 268.64 659.75 C 271.27 658.98 273.97 658.42 276.73 658.43 C 276.12 659.94 276.32 661.98 275.01 663.11 C 273.20 663.92 271.17 663.97 269.24 664.28 C 269.03 662.76 268.83 661.26 268.64 659.75 Z" />
<path fill="#020202" d=" M 489.12 658.20 C 490.51 657.64 491.31 659.98 489.83 660.35 C 488.42 660.90 487.62 658.55 489.12 658.20 Z" />
<path fill="#030303" d=" M 172.35 658.94 C 174.27 657.76 176.59 658.66 178.03 660.17 C 178.35 663.94 174.55 665.95 171.24 665.41 C 167.69 664.92 170.22 659.95 172.35 658.94 Z" />
<path fill="#020202" d=" M 246.54 662.91 C 247.67 661.07 249.53 659.90 251.18 658.60 C 251.73 660.87 252.15 663.18 252.44 665.50 C 254.13 665.96 255.81 666.44 257.50 666.94 C 257.22 668.32 256.95 669.71 256.67 671.11 C 254.59 671.39 252.51 671.78 250.40 671.73 C 248.80 668.95 247.57 665.94 246.54 662.91 Z" />
<path fill="#020202" d=" M 318.59 661.48 C 319.80 658.91 323.11 659.29 325.43 658.68 C 325.22 660.79 325.48 663.39 323.46 664.76 C 321.49 666.87 316.66 664.11 318.59 661.48 Z" />
<path fill="#020202" d=" M 235.96 660.85 C 237.21 660.55 238.46 660.25 239.71 659.98 C 239.76 661.24 239.80 662.51 239.84 663.79 C 238.76 663.73 237.68 663.66 236.61 663.60 C 236.45 662.92 236.12 661.54 235.96 660.85 Z" />
<path fill="#030303" d=" M 283.43 662.68 C 285.66 662.23 288.35 661.61 289.71 664.03 C 289.50 666.60 287.08 667.54 285.11 668.58 C 284.50 666.62 283.94 664.65 283.43 662.68 Z" />
<path fill="#020202" d=" M 304.45 667.37 C 307.54 666.78 311.59 666.77 313.79 669.40 C 313.93 674.68 304.82 676.83 302.79 671.77 C 301.62 670.02 303.32 668.54 304.45 667.37 Z" />
<path fill="#030303" d=" M 355.85 668.78 C 357.75 667.25 360.16 668.42 362.26 668.74 C 361.82 670.27 361.38 671.82 360.93 673.36 C 359.13 673.04 357.31 672.81 355.56 672.29 C 355.26 671.11 355.27 669.85 355.85 668.78 Z" />
<path fill="#020202" d=" M 206.41 674.13 C 207.23 671.54 208.81 669.47 211.73 669.49 C 211.77 671.03 211.80 672.57 211.82 674.13 C 210.02 674.14 208.21 674.14 206.41 674.13 Z" />
<path fill="#030303" d=" M 272.18 672.65 C 273.82 671.51 275.50 670.44 277.22 669.41 C 277.55 670.92 277.95 672.43 278.11 673.98 C 277.47 675.18 276.53 676.20 275.68 677.26 C 274.50 675.73 273.32 674.19 272.18 672.65 Z" />
<path fill="#020202" d=" M 321.25 679.67 C 322.48 677.24 324.55 675.95 327.29 676.30 C 327.23 677.23 327.10 679.10 327.03 680.04 C 325.10 679.94 323.17 679.83 321.25 679.67 Z" />
<path fill="#020202" d=" M 289.64 678.68 C 291.13 677.89 292.88 677.83 294.48 677.36 C 294.15 679.03 294.25 680.88 293.40 682.42 C 292.26 684.09 289.95 683.46 288.24 683.79 C 288.39 682.04 287.88 679.79 289.64 678.68 Z" />
</svg>
